<?xml version="1.0" encoding="UTF-8" standalone="no"?>
<svg
   id="svg"
   version="1.1"
   width="228.13011"
   height="275.95526"
   xmlns="http://www.w3.org/2000/svg"
   xmlns:svg="http://www.w3.org/2000/svg">
  <defs
     id="defs1" />
  <path
     d="m 74.789627,49.95628 c -6.325,3.341 -14.2,8.021999 -17.5,10.401999 -13.455,9.704 -37.058,36.86 -44.14,50.784001 -2.417,4.751 -6.8760014,18.992 -12.5880014,40.205 l -2.963003,11 0.595,21 c 0.848,29.931 4.032003,41.041 16.1950044,56.5 3.246,4.125 7.247,9.481 8.893,11.903 4.339,6.385 11.643,12.27 17.717,14.275 13.42,4.43 25.578,6.036 46.791,6.182 20.381993,0.139 20.528993,0.125 25.529993,-2.515 2.766,-1.461 10.416,-4.73 17,-7.265 13.837,-5.329 16.173,-6.51 22.97,-11.626 12.238,-9.21 22.078,-18.752 27.28,-26.454 2.973,-4.4 7.725,-10.496 10.562,-13.546 19.757,-21.244 23.565,-27.158 30.073,-46.698 2.537,-7.619 2.716,-9.204 2.369,-20.998 -0.207,-7.017 -0.74,-13.545 -1.187,-14.508 -0.665,-1.434 -0.325,-1.75 1.879,-1.75 3.729,0 2.716,-2.416 -1.175,-2.804 -2.934,-0.293 -3.129,-0.622 -5.314,-9 -1.247,-4.783 -2.81,-9.596 -3.473,-10.696 -0.663,-1.1 -2.462,-5.825001 -3.999,-10.500001 -2.769,-8.421 -10.725,-23.324 -14.866,-27.847 -3.628,-3.963 -10.743,-7.133 -26.649,-11.872999 -9.397,-2.8 -21.861,-4.01 -50.168,-4.868 -16.665,-0.506 -17.906,-0.415 -21.868994,1.607 -3.12,1.592 -3.911,2.433 -3.072,3.272 0.838,0.837999 1.941,0.648999 4.287,-0.737 2.953994,-1.745 4.906994,-1.822 30.226994,-1.19 22.327,0.557 28.122,1.003 33.082,2.550999 3.307,1.031 10.047,3.146 14.978,4.699 4.931,1.554 10.988,4.188 13.461,5.855 5.831,3.932 13.605,16.665 18.029,29.531 1.797,5.225001 3.865,10.663001 4.596,12.083001 1.551,3.018 4.698,16.001 4.038,16.662 -0.559,0.558 -9.123,-1.239 -13.126,-2.754 -1.63,-0.618 -6.946,-5.255 -11.815,-10.307 l -8.851,-9.184 h -11.872 c -10.944,0 -12.049,-0.175 -14.148,-2.236001 -1.252,-1.23 -4.448,-4.048 -7.102,-6.262 -6.772,-5.651 -9.582,-9.251 -11.822,-15.146 -2.707,-7.125 -7.956,-14.856 -10.087,-14.856 -2.049,0 -2.337,1.538 -0.506,2.7 1.998,1.269 6.24,8.348 8.267,13.8 1.023,2.75 3.568,7.025 5.657,9.5 l 3.798,4.5 -6.741,0.654 c -6.231,0.605 -14.618,2.479 -28.136,6.288001 -2.967,0.836 -7.50828,2.35358 -10.198274,2.84258 -5.48569,0.46599 -6.10618,0.84539 -16.033287,1.99886 l -8.373432,1.98656 -6.168,-3.635 c -4.337,-2.555 -7.363,-3.635001 -10.191,-3.635001 -2.213,0 -4.301,-0.45 -4.641,-1 -1.094,-1.771 -13.649,-1.139 -19.443,0.979 -2.979,1.089001 -5.875,2.439001 -6.436,3.000001 -0.562,0.562 -1.603,1.021 -2.313,1.021 -1.788,0 -6.308,4.071 -6.308,5.68 0,1.803 1.24,1.656 3.62,-0.43 4.661,-4.084 15.917,-8.651 19.694,-7.99 2.421,0.424 2.974,0.136 -9.564,4.983 -3.162,1.222 -5.75,2.793 -5.75,3.49 0,1.636 1.439,1.604 4.8,-0.109 9.737,-4.964 24.581,-7.922 28.964,-5.772 0.955,0.468 3.787,1.874 6.294,3.124 4.052,2.02 5.659,2.225 14.5,1.846 6.178,-0.265 11.266999,-1.034 13.441999,-2.033 1.925,-0.884 5.835994,-1.886 8.691994,-2.225 2.855,-0.34 6.68,-1.238 8.5,-1.996 1.819,-0.758 5.558,-1.702 8.308,-2.099 2.75,-0.397001 5.583,-1.187001 6.296,-1.755001 0.712,-0.569 5.868,-1.306 11.457,-1.637 l 10.162,-0.602 4.042,3.977001 4.043,3.977 12.04,0.036 12.04,0.035 8.968,9 c 9.457,9.491 13.12,11.506 23.696,13.038 4.398,0.637 4.824,0.957 5.855,4.397 0.68,2.271 0.94,8.723 0.671,16.637 -0.405,11.883 -0.731,13.682 -4.032,22.258 -3.068,7.971 -12.522,24.421 -14.579,25.367 -1.769,0.813 -17.426,19.136 -23.232,27.188 -6.499,9.011 -18.619,20.587 -29.472,28.15 -4.212,2.935 -25.008,12.172 -40.955,18.191 -6.205,2.342 -40.364993,1.013 -54.499993,-2.12 -5.775,-1.279 -12.138,-3.021 -14.14,-3.869 -4.488,-1.902 -11.391,-8.034 -14.386,-12.778 -1.233,-1.954 -4.933,-6.907 -8.222,-11.006 -6.884,-8.581 -12.5970014,-20.72 -14.4350014,-30.673 -0.752,-4.069 -1.266,-15.577 -1.285,-28.78 -0.032,-21.888 -0.016,-22.054 3.144,-32.5 1.747,-5.775 4.491,-15 6.0980014,-20.5 3.737,-12.794 5.502,-16.154 15.793,-30.062001 10.046,-13.576 25.349,-29.133 34.417,-34.988 14.119,-9.115999 24.127,-13.766999 30.935999,-14.375999 8.847994,-0.791 9.530994,-3.08 0.913,-3.057 -5.805999,0.015 -7.290999,0.522 -17.832999,6.092 m 84.334993,62.141 c -0.602,2.888 -3.204,10.65 -5.783,17.25 -2.579,6.6 -5.489,15.825 -6.467,20.5 l -1.778,8.5 -4.404,1.17 c -2.422,0.643 -10.274,1.205 -17.45,1.25 l -13.047,0.08 -3.906,-4 c -2.592,-2.654 -4.787,-4 -6.524994,-4 -1.44,0 -4.782,-0.737 -7.427,-1.638 -7.061999,-2.407 -21.106999,-1.366 -34.547999,2.558 -15.598,4.555 -18.438,4.745 -25,1.674 -4.881,-2.285 -6.767,-2.576 -16.75,-2.584 -9.3380014,-0.008 -11.2500014,0.245 -11.2500014,1.49 0,1.245 1.926,1.5 11.3310014,1.5 10.1,0 11.864,0.271 16.25,2.496 2.705,1.373 5.885,2.498 7.065,2.5 1.18,0.002 7.255,-1.38 13.5,-3.072 6.245,-1.692 13.379,-3.466 15.854,-3.941 7.422,-1.425 20.671,-1.147 24.653999,0.517 1.975,0.825 4.569,1.5 5.765,1.5 1.219994,0 3.889994,1.757 6.080994,4 l 3.906,4 h 13.138 c 8.623,0 14.802,-0.501 17.978,-1.457 l 4.841,-1.456 3.068,3.368 c 2.341,2.569 4.848,3.87 10.569,5.486 4.125,1.165 9.581,3.055 12.123,4.2 l 4.624,2.082 0.514,13.139 c 0.532,13.585 1.742,19.041 4.452,20.081 2.471,0.948 2.717,-0.141 0.714,-3.162 -1.5,-2.261 -1.946,-5.48 -2.386,-17.218 l -0.541,-14.437 -5.473,-2.704 c -3.01,-1.487 -7.96,-3.255 -11,-3.929 -6.298,-1.398 -10.058,-3.121 -12.053,-5.524 -1.188,-1.431 -1.143,-1.795 0.323,-2.615 2.103,-1.177 2.244,-3.854 0.203,-3.854 -3.164,0 -1.616,-6.5 7.044,-29.574 5.503,-14.661 6.526,-19.426 4.171,-19.426 -0.744,0 -1.745,2.208 -2.38,5.25 m -83.334993,49.33 c 0,4.485 5.981,19.739 9.521,24.283 1.872,2.402 4.857,5.441 6.634999,6.752 2.9,2.14 3.007,2.385 1.038,2.385 -1.284,0 -2.194,0.622 -2.194,1.5 0,0.825 0.45,1.5 1,1.5 2.615,0 0.707,5.524 -3.683999,10.664 -4.908,5.745 -11.616,9.531 -22.515,12.711 -2.916,0.85 -6.732,2.801 -8.48,4.335 -6.019,5.282 -12.075,24.144 -9.373,29.193 0.872,1.629 0.753,2.624 -0.554,4.618 -2.396,3.657 -0.678,4.507 2.245,1.111 2.025,-2.354 2.327,-3.43 1.681,-6 -1.321,-5.256 -0.631,-10.65 2.291,-17.906 3.098,-7.697 6.367,-10.871 13.016,-12.639 9.576,-2.547 18.159,-7.509 23.834,-13.781 4.818999,-5.325 5.538999,-6.652 5.538999,-10.213 0,-2.403 0.472,-4.093 1.143,-4.093 0.628,0 3.264994,2.137 5.858994,4.75 3.388,3.412 4.922,5.877 5.448,8.75 1.363,7.452 5.153,13.942 9.281,15.893 4.853,2.294 13.548,8.033 15.218,10.045 1.418,1.709 4.051,2.117 4.051,0.629 0,-1.411 -7.762,-7.412 -14.361,-11.104 -6.206,-3.472 -8.977,-6.938 -10.767,-13.463 -0.603,-2.2 -1.546,-5.226 -2.095,-6.725 -1.151,-3.14 -7.603,-9.146 -13.724994,-12.775 -2.319,-1.375 -5.786999,-4.416 -7.707999,-6.758 -3.22,-3.928 -8.811,-17 -10.047,-23.492 -0.662,-3.477 -2.297,-3.598 -2.297,-0.17"
     stroke="none"
     fill="#000000"
     fill-rule="evenodd"
     id="path1"
     style="display:none;opacity:0.329" />
  <g
     id="layer1"
     style="display:none;opacity:0.341"
     transform="translate(-14.210377,-6.1527209)">
    <ellipse
       style="opacity:1;fill:none;stroke:#000000;stroke-width:4.52978"
       id="path2"
       cx="128.51291"
       cy="165.97417"
       rx="111.80016"
       ry="113.53448" />
    <path
       style="fill:none;stroke:#000000;stroke-width:1.03409px;stroke-linecap:butt;stroke-linejoin:miter;stroke-opacity:1"
       d="m 28.190156,118.52149 c 0.470754,-0.12148 0.978247,-0.14043 1.41226,-0.36441 0.105264,-0.0543 -0.08322,-0.27851 0,-0.3644 0.08322,-0.0859 0.241416,0.0384 0.353065,0 0.49931,-0.17178 0.91295,-0.55703 1.412259,-0.72881 0.111649,-0.0384 0.247802,0.0543 0.353066,0 0.148864,-0.0768 0.195169,-0.31007 0.353064,-0.36439 0.223298,-0.0768 0.475325,0.0476 0.70613,0 0.364936,-0.0753 0.701351,-0.25888 1.059195,-0.3644 0.466571,-0.13759 0.941506,-0.24294 1.41226,-0.36441 0.470752,-0.12147 0.93362,-0.28206 1.412258,-0.3644 0.464349,-0.0798 0.950649,0.0953 1.41226,0 2.902925,-0.99871 -0.744326,0.12803 2.118389,-0.36441 0.71836,0.12658 1.143862,-0.60051 1.765325,-0.72879 0.346208,-0.0714 0.712986,0.0714 1.059195,0 0.516097,-0.10654 0.91295,-0.55703 1.412259,-0.72881 0.46034,-0.15837 0.945689,-0.22681 1.41226,-0.36439 0.357843,-0.10553 0.694258,-0.28908 1.059194,-0.36441 0.230806,-0.0476 0.477781,0.0589 0.70613,0 0.255302,-0.0659 0.461793,-0.26353 0.70613,-0.3644 0.691089,-0.28531 1.412259,-0.48586 2.118389,-0.72881 0.353065,-0.12146 0.690772,-0.31007 1.059194,-0.36439 0.466023,-0.0687 0.952717,0.1054 1.41226,0 0.618679,-0.1419 1.153885,-0.5567 1.765324,-0.72881 0.690646,-0.19441 1.430063,-0.16142 2.11839,-0.3644 0.160032,-0.0472 0.19517,-0.31008 0.353065,-0.36439 0.223297,-0.0768 0.477781,0.0589 0.70613,0 0.510603,-0.13176 0.912949,-0.55703 1.412258,-0.72881 0.111649,-0.0384 0.237663,0.0238 0.353066,0 0.475818,-0.0982 0.951919,-0.20603 1.412259,-0.3644 1.828105,-0.62894 -0.81771,-0.22375 2.11839,-0.7288 0.696522,-0.11982 1.419356,0.10306 2.118388,0 0.368423,-0.0543 0.69426,-0.28908 1.059196,-0.3644 0.230806,-0.0477 0.470752,0 0.706129,0 0.823818,0 1.647636,0 2.471454,0 0.588442,0 1.176884,0 1.765324,0 0.235378,0 0.470754,0 0.70613,0 0.117689,0 0.238891,-0.0295 0.353066,0 3.657315,1.25825 -1.460006,-0.37426 2.118389,0.3644 0.258048,0.0533 0.456475,0.27851 0.70613,0.36439 0.111648,0.0384 0.235376,0 0.353064,0 0.235376,0.12147 0.456475,0.27852 0.70613,0.36441 0.111649,0.0384 0.247802,-0.0543 0.353064,0 0.148866,0.0768 0.2042,0.28757 0.353066,0.3644 0.869582,0.44875 -0.318724,-1.05776 1.059194,0.3644 0.08322,0.0859 -0.09415,0.29152 0,0.36441 0.91843,0.71093 1.497518,0.69111 2.471455,1.0932 0.723339,0.29862 1.379856,0.83911 2.118388,1.0932 0.111649,0.0384 0.241417,-0.0384 0.353066,0 0.499309,0.17178 0.901656,0.59706 1.412259,0.7288 0.549226,0.14172 1.209949,-0.11464 1.765324,0 0.364936,0.0753 0.698144,0.27124 1.059196,0.36441 0.114173,0.0294 0.236977,-0.02 0.353064,0 0.59193,0.1018 1.169863,0.28758 1.765324,0.36439 0.583898,0.0753 1.176883,0 1.765325,0 1.647636,0 3.295272,0 4.942908,0 1.529948,0 3.059894,0 4.589847,0 0.4948,0 2.69867,0.0706 3.17758,0 0.36842,-0.0543 0.6921,-0.30125 1.0592,-0.36439 0.58043,-0.0998 1.18831,0.1191 1.76532,0 2.90292,-0.99872 -0.74433,0.12803 2.11839,-0.36441 0.7342,-0.12629 1.38419,-0.60251 2.11839,-0.7288 0.69652,-0.11981 1.41935,0.10306 2.11839,0 0.52078,-0.0768 1.91256,-0.49807 2.47145,-0.7288 0.24434,-0.10086 0.44808,-0.31114 0.70613,-0.3644 0.69241,-0.14293 1.42187,0.1198 2.11839,0 3.09927,-0.53313 -0.53969,-0.13405 1.76533,-0.72881 0.22835,-0.0589 0.47532,0.0476 0.70612,0 0.72988,-0.15066 1.38852,-0.57814 2.11839,-0.7288 0.57701,-0.1191 1.18831,0.11911 1.76533,0 0.25805,-0.0533 0.46179,-0.26353 0.70613,-0.3644 0.34554,-0.14266 0.69425,-0.28907 1.05919,-0.3644 0.46161,-0.0953 0.95557,0.11783 1.41226,0 0.2553,-0.0659 0.45083,-0.29853 0.70613,-0.36441 0.22835,-0.0589 0.47533,0.0476 0.70613,0 2.90292,-0.9987 -0.74433,0.12805 2.11839,-0.36439 0.3671,-0.0631 0.69815,-0.27125 1.0592,-0.3644 0.11417,-0.0295 0.23537,0 0.35306,0 0.23537,0 0.47076,0 0.70613,0 1.61904,0 -0.37217,0.0768 1.76533,-0.36441 0.2308,-0.0476 0.47532,0.0476 0.70612,0 0.36494,-0.0753 0.6921,-0.30125 1.0592,-0.3644 0.34826,-0.0599 0.70613,0 1.05919,0 0.1177,0 0.24142,0.0384 0.35307,0 0.24966,-0.0859 0.45647,-0.27851 0.70612,-0.36441 0.11165,-0.0384 0.24142,0.0384 0.35308,0 2.19151,-0.75395 -1.17343,0.0295 1.76532,-0.72879 0.28982,-0.0748 1.20467,0.10712 1.41226,0 0.14886,-0.0768 0.20419,-0.28758 0.35306,-0.36441 0.10527,-0.0543 0.24142,0.0384 0.35307,0 0.24966,-0.0858 0.45647,-0.2785 0.70612,-0.3644 0.22331,-0.0768 0.48283,0.0768 0.70614,0 0.24965,-0.0859 0.47074,-0.24293 0.70613,-0.36439 0.7305,-0.37699 0.89275,-0.50366 1.76532,-0.72881 0.22835,-0.0589 0.48284,0.0768 0.70613,0 0.49931,-0.17178 0.90166,-0.59706 1.41225,-0.72881 0.22836,-0.0589 0.47779,0.0589 0.70614,0 0.2553,-0.0659 0.45648,-0.2785 0.70613,-0.36439 0.11165,-0.0384 0.24141,0.0385 0.35306,0 0.24966,-0.0859 0.45083,-0.29853 0.70613,-0.3644 0.22836,-0.0589 0.47075,0 0.70614,0 0.11768,0 0.24779,0.0543 0.35306,0 0.37954,-0.19587 0.67966,-0.53295 1.05919,-0.72881 0.21053,-0.10864 0.49561,0.10864 0.70614,0 0.14886,-0.0768 0.20419,-0.28758 0.35306,-0.36439 0.10527,-0.0543 0.2478,0.0543 0.35306,0 0.14886,-0.0768 0.20421,-0.28759 0.35307,-0.36441 0.10526,-0.0543 0.23537,0 0.35306,0 0.23538,-0.12147 0.48717,-0.21374 0.70613,-0.3644 0.13849,-0.0953 0.2042,-0.28758 0.35307,-0.3644 0.10526,-0.0543 0.24142,0.0384 0.35306,0 0.49931,-0.17179 0.90165,-0.59705 1.41226,-0.728805 1.60725,0 0.0202,0.171775 1.0592,-0.364402 0.47075,-0.242934 0.35306,0.364402 0.35306,-0.364401"
       id="path4" />
    <path
       style="fill:none;stroke:#000000;stroke-width:1px;stroke-linecap:butt;stroke-linejoin:miter;stroke-opacity:1"
       d="m 136.66421,54.457565 c 0.54325,0.905104 0.79309,2.147427 1.73431,2.774907 0.0962,0.06414 0.26511,-0.08176 0.34687,0 0.0818,0.08176 -0.0366,0.237176 0,0.346864 0.0818,0.245269 0.28416,0.442909 0.34686,0.693727 0.0841,0.336507 -0.10969,0.711527 0,1.04059 0.83749,2.512477 -0.1,-0.546867 0.69373,1.040591 0.0517,0.103414 0,0.231242 0,0.346863 0,0.231242 -0.0731,0.474351 0,0.693727 0.0517,0.155122 0.27374,0.200613 0.34686,0.346863 0.16351,0.327026 0.21107,0.701115 0.34686,1.040591 0.19204,0.480091 0.5017,0.907363 0.69373,1.387454 0.13579,0.339475 0.21108,0.701115 0.34687,1.04059 0.096,0.240045 0.20345,0.478611 0.34686,0.693727 0.0907,0.136051 0.28613,0.195045 0.34686,0.346864 0.17705,0.442621 0.19611,0.935199 0.34687,1.387453 0.24127,0.72381 0.79932,1.010508 1.04059,1.734318 0.0366,0.109688 -0.0517,0.243448 0,0.346863 0.0731,0.146251 0.25616,0.210813 0.34686,0.346864 0.14341,0.215115 0.23124,0.462484 0.34686,0.693727 0.11562,0.231242 0.25085,0.453681 0.34687,0.693727 0.13579,0.339475 0.15875,0.727068 0.34686,1.04059 0.16825,0.280422 0.48944,0.438362 0.69373,0.693727 0.26042,0.325527 0.4436,0.707088 0.69372,1.04059 0.0981,0.130811 0.29516,0.191742 0.34687,0.346864 0.0731,0.219375 -0.10342,0.486897 0,0.693727 0.21937,0.438751 0.82121,0.601839 1.04059,1.04059 0.0517,0.103415 -0.0366,0.237176 0,0.346864 0.25958,0.778755 0.6448,0.942736 1.04059,1.734317 0.0517,0.103415 -0.0517,0.243449 0,0.346863 0.0731,0.146251 0.29515,0.191742 0.34686,0.346864 0.0731,0.219376 -0.0731,0.474351 0,0.693727 0.0517,0.155122 0.25616,0.210812 0.34686,0.346863 0.14342,0.215116 0.26511,0.448458 0.34687,0.693727 0.0366,0.109688 -0.0366,0.237176 0,0.346864 0.0817,0.245269 0.28416,0.442909 0.34686,0.693727 0.0561,0.224338 -0.0561,0.469389 0,0.693727 0.41875,1.674984 0.16484,-0.01719 0.69373,1.04059 0.56408,1.128157 0.0876,0.825077 0.69373,1.734317 0.0907,0.136051 0.29515,0.191742 0.34686,0.346864 0.0731,0.219375 -0.0731,0.474351 0,0.693727 0.0517,0.155122 0.25616,0.210812 0.34686,0.346863 0.14341,0.215116 0.26511,0.448458 0.34687,0.693727 0.34418,1.032554 -0.82133,-0.711696 0.34686,1.040591 0.0907,0.136051 0.27374,0.200612 0.34686,0.346863 0.0517,0.103415 -0.0517,0.243449 0,0.346863 0.0731,0.146251 0.27374,0.200613 0.34687,0.346864 0.0517,0.103415 -0.0517,0.243449 0,0.346863 0.0731,0.146251 0.23124,0.231243 0.34686,0.346864 0.23124,0.231242 0.46248,0.462484 0.69373,0.693727 0.11562,0.115621 0.25616,0.210812 0.34686,0.346863 0.14341,0.215116 0.20345,0.478612 0.34686,0.693727 0.0907,0.136051 0.27374,0.200613 0.34687,0.346864 0.0517,0.103414 -0.0517,0.243448 0,0.346863 0.14625,0.292501 0.54747,0.401226 0.69372,0.693727 0.0517,0.103415 -0.0517,0.243449 0,0.346864 0.72179,1.443562 -0.0239,-0.37081 0.69373,0.346863 0.18281,0.182813 0.26511,0.448457 0.34686,0.693727 0.0366,0.109688 -0.0817,0.265107 0,0.346863 0.0818,0.08176 0.24345,-0.05171 0.34687,0 1.44356,0.721782 -0.37081,-0.02395 0.34686,0.693727 0.0818,0.08176 0.26511,-0.08176 0.34687,0 0.36562,0.365627 0.3281,1.021828 0.69372,1.387454 0.0818,0.08176 0.26511,-0.08176 0.34687,0 0.0817,0.08176 -0.0818,0.265107 0,0.346864 0.0817,0.08176 0.2651,-0.08176 0.34686,0 0.18281,0.182813 0.20345,0.478611 0.34686,0.693727 0.0907,0.136051 0.25617,0.210812 0.34687,0.346863 0.0431,0.06461 0.6715,1.365227 0.69372,1.387454 0.18282,0.182811 0.51092,0.164051 0.69373,0.346861 0.29478,0.29478 0.4436,0.70709 0.69373,1.04059 0.32836,0.43782 0.98313,0.98314 1.38745,1.38746 0.11562,0.11562 0.27374,0.20061 0.34686,0.34686 0.0517,0.10341 -0.0817,0.26511 0,0.34686 0.18282,0.18282 0.51092,0.16405 0.69373,0.34687 0.18281,0.18281 0.20345,0.47861 0.34686,0.69372 0.35365,0.53047 0.47895,0.2725 1.04059,0.69373 0.26163,0.19622 0.43211,0.49751 0.69373,0.69373 0.41366,0.31024 0.95722,0.4069 1.38746,0.69372 0.13605,0.0907 0.19504,0.28614 0.34686,0.34687 0.44262,0.17705 0.9352,0.19611 1.38745,0.34686 0.24527,0.0818 0.44291,0.28416 0.69373,0.34687 0.44868,0.11216 0.93878,-0.11217 1.38745,0 0.25082,0.0627 0.44021,0.29616 0.69373,0.34686 0.34013,0.068 0.70408,-0.0841 1.04059,0 0.15863,0.0397 0.23124,0.23124 0.34686,0.34686 0.80935,0.11562 1.61548,0.25658 2.42805,0.34687 0.34474,0.0383 0.69373,0 1.04059,0 1.15621,0 2.31242,0 3.46863,0 2.54367,0 5.08733,0 7.631,0 1.6187,0 3.23739,0 4.85609,0 0.69773,0 1.81525,-0.10214 2.42804,0 0.25502,0.0425 0.46926,0.21859 0.69373,0.34686 3.87004,2.21145 -0.70685,-0.32368 4.16236,2.77491 0.43624,0.2776 0.92497,0.46248 1.38746,0.69372 0.46248,0.34687 0.90644,0.71992 1.38745,1.04059 0.21512,0.14341 0.46248,0.23125 0.69373,0.34687 0.46248,0.23124 0.93545,0.44261 1.38745,0.69372 4.65657,2.58699 -0.0239,-0.10462 2.42804,1.73432 0.20683,0.15512 0.51092,0.16405 0.69373,0.34687 0.29478,0.29477 0.39895,0.74581 0.69373,1.04059 0.18281,0.18281 0.48965,0.18813 0.69373,0.34686 0.84142,0.65444 1.59565,1.41527 2.42804,2.08118 0.65105,0.52084 1.43013,0.86661 2.08118,1.38745 0.51073,0.40859 0.86421,0.99503 1.38745,1.38746 0.20683,0.15512 0.46249,0.23124 0.69373,0.34686 0.23124,0.23124 0.43836,0.48944 0.69373,0.69373 0.32553,0.26042 0.68312,0.47924 1.04059,0.69373 0.22169,0.13301 0.51091,0.16405 0.69373,0.34686 0.0817,0.0818 -0.10342,0.29515 0,0.34686 0.42639,0.2132 0.94483,0.16982 1.38745,0.34687 0.15182,0.0607 0.21605,0.24875 0.34686,0.34686 0.33351,0.25013 0.68312,0.47924 1.04059,0.69373 0.2217,0.13301 0.47861,0.20345 0.69373,0.34686 0.79373,0.52915 -0.21689,0.27457 1.04059,0.69373 1.03255,0.34418 -0.7117,-0.82133 1.04059,0.34686 0.13605,0.0907 0.19174,0.29516 0.34686,0.34686 0.21938,0.0731 0.47436,-0.0731 0.69373,0 0.15512,0.0517 0.19174,0.29516 0.34687,0.34687 0.21937,0.0731 0.46938,-0.0561 0.69372,0 0.25082,0.0627 0.46249,0.23124 0.69373,0.34686 0.34686,0.11562 0.68206,0.27516 1.04059,0.34686 0.22675,0.0454 0.47435,-0.0731 0.69373,0 0.15512,0.0517 0.20061,0.27374 0.34686,0.34687 0.10341,0.0517 0.23124,0 0.34686,0 0.23125,0 0.4869,-0.10342 0.69373,0 0.10341,0.0517 -0.0818,0.2651 0,0.34686 0.16351,0.16351 0.4869,-0.10341 0.69373,0 0.14625,0.0731 0.20061,0.27374 0.34686,0.34686 0.0912,0.0456 1.20607,0 1.38745,0"
       id="path5" />
    <path
       style="fill:none;stroke:#000000;stroke-width:0.997955px;stroke-linecap:butt;stroke-linejoin:miter;stroke-opacity:1"
       d="m 175.85935,108.39405 c -0.75462,0.60296 -0.17629,1.39313 -0.34687,2.07262 -0.0627,0.24979 -0.26511,0.44661 -0.34688,0.69087 -0.0366,0.10923 0,0.23029 0,0.34544 0,0.27564 0.0694,1.51993 0,1.72718 -0.16351,0.48852 -0.53022,0.89322 -0.69375,1.38174 -0.12286,0.36706 0.12288,1.01467 0,1.38175 -0.0817,0.24425 -0.25084,0.45181 -0.34687,0.69086 -0.13579,0.33808 -0.23124,0.69088 -0.34687,1.03631 -0.11562,0.34544 -0.27517,0.67926 -0.34688,1.03631 -0.0453,0.22581 0.0731,0.47239 0,0.69087 -0.0517,0.15448 -0.29516,0.19095 -0.34687,0.34543 -0.0731,0.21848 0,0.46059 0,0.69088 -0.11562,0.23029 -0.26512,0.44661 -0.34687,0.69087 -0.10969,0.32771 0.068,0.69758 0,1.03631 -0.58412,2.90846 -0.005,0.0106 -0.69375,1.38174 -0.38344,0.76369 -0.34687,0.79294 -0.34687,1.38175 0,0.23029 0.0731,0.4724 0,0.69086 -0.0517,0.15448 -0.29517,0.19095 -0.34688,0.34545 -0.0731,0.21846 0.0731,0.47239 0,0.69086 -0.0517,0.15448 -0.23125,0.23029 -0.34687,0.34544 0,0.23029 0.0561,0.46745 0,0.69087 -0.0627,0.24978 -0.25086,0.45181 -0.34687,0.69087 -0.1358,0.33808 -0.18336,0.71062 -0.34688,1.03631 -0.79376,1.58093 0.14377,-1.46583 -0.69374,1.03631 -0.15077,0.45039 -0.25339,0.9162 -0.34688,1.38174 -0.0454,0.22582 0.0561,0.46745 0,0.69087 -0.17736,0.7065 -0.55033,1.35852 -0.69374,2.07261 -0.068,0.33873 0.10968,0.70861 0,1.03631 -0.0818,0.24426 -0.28417,0.44109 -0.34688,0.69088 -0.0561,0.22341 0.0731,0.47239 0,0.69087 -0.0517,0.15448 -0.29516,0.19095 -0.34687,0.34543 -0.0731,0.21848 0.0561,0.46746 0,0.69088 -0.0627,0.24978 -0.23125,0.46057 -0.34687,0.69086 -0.11564,0.34545 -0.2582,0.68306 -0.34689,1.03631 -0.0816,0.32512 0.0816,0.7112 0,1.03631 -0.12541,0.49957 -0.56833,0.88217 -0.69375,1.38175 -0.0561,0.22341 0.0561,0.46746 0,0.69087 -0.0627,0.24978 -0.28415,0.44109 -0.34687,0.69087 -0.0561,0.22341 0,0.46058 0,0.69087 -0.11562,0.23029 -0.28416,0.44109 -0.34687,0.69088 -0.0561,0.2234 0.0561,0.46745 0,0.69086 -0.12541,0.49958 -0.56833,0.88217 -0.69375,1.38175 -0.0561,0.22342 0.038,0.46371 0,0.69087 -0.0784,0.4683 -0.25337,0.91621 -0.34687,1.38174 -0.0227,0.11291 0.0366,0.2362 0,0.34544 -0.0818,0.24426 -0.28417,0.44108 -0.34688,0.69087 -0.0561,0.22342 0,0.46058 0,0.69088 0,0.23028 0,0.46057 0,0.69086 0,0.11515 0.0366,0.23621 0,0.34544 -0.0817,0.24426 -0.28416,0.44109 -0.34687,0.69087 -0.11506,0.45835 0.13613,1.66594 0,2.07261 -0.0517,0.15449 -0.29517,0.19095 -0.34687,0.34544 -0.0771,0.23043 0.005,2.38437 0,2.41805 -0.0517,0.36046 -0.29517,0.67585 -0.34688,1.03631 -0.0654,0.45595 0,0.92116 0,1.38175 0,0.34543 0,0.69086 0,1.03631 0,0.46057 0.076,0.92742 0,1.38173 -0.0425,0.25398 -0.26511,0.44662 -0.34687,0.69088 -0.067,0.2001 0,1.08239 0,1.38174 0,0.3243 -0.0663,1.52925 0,1.72718 0.0517,0.15448 0.27375,0.19979 0.34687,0.34543 0.10342,0.20598 -0.10341,0.4849 0,0.69088 0.0731,0.14565 0.25618,0.20994 0.34688,0.34543 0.14342,0.21424 0.16406,0.50882 0.34687,0.69088 0.18282,0.18205 0.51093,0.16337 0.69375,0.34543 0.18282,0.18207 0.20346,0.47664 0.34687,0.69087 0.26683,0.39859 0.7738,0.63773 1.04062,1.03631 0.14342,0.21423 0.20346,0.47664 0.34687,0.69087 0.34596,0.51678 1.2927,1.11783 1.73438,1.38174 0.2217,0.13248 0.47862,0.20262 0.69375,0.34544 0.13605,0.0903 0.23124,0.23029 0.34687,0.34544 0.23125,0.23029 0.4625,0.46058 0.69375,0.69086 0.11562,0.11516 0.20061,0.27262 0.34687,0.34545 0.65408,0.32567 1.40227,0.4204 2.08124,0.69086 0.24006,0.0956 0.4625,0.2303 0.69375,0.34544 0.46251,0.11515 0.93523,0.19531 1.38749,0.34544 0.24528,0.0815 0.44293,0.28299 0.69375,0.34544 0.22435,0.0559 0.467,-0.0452 0.69375,0 0.35853,0.0714 0.68208,0.27402 1.04063,0.34543 0.0134,0.003 1.03892,-0.002 1.04062,0 0.0818,0.0815 -0.1097,0.30902 0,0.34543 0.32907,0.10924 0.69375,0 1.04062,0 0.23124,0 0.46249,0 0.69375,0 0.11562,0 0.23718,-0.0365 0.34687,0 0.24528,0.0815 0.44847,0.26402 0.69375,0.34544 0.23859,0.0792 0.83595,-0.1019 1.04062,0 0.14625,0.0728 0.20062,0.27261 0.34687,0.34544 0.20684,0.10298 0.46699,-0.0452 0.69375,0 0.46748,0.0931 0.94486,0.16911 1.38749,0.34543 0.15183,0.0605 0.19175,0.29394 0.34688,0.34544 0.21938,0.0728 0.47437,-0.0728 0.69374,0 0.15513,0.0515 0.20063,0.27261 0.34688,0.34543 0.10342,0.0515 0.23125,0 0.34688,0 0.23124,0.11515 0.47862,0.20262 0.69375,0.34544 0.66687,0.44274 0.0269,0.59356 0.69374,1.0363 0.9809,0.65122 0.6684,-0.10097 1.04062,1.38175 0.0281,0.11171 0,0.23029 0,0.34544 0.11562,0.46058 0.19612,0.93135 0.34688,1.38174 0.0817,0.24426 0.28417,0.44108 0.34687,0.69087 0.0561,0.22342 -0.0731,0.4724 0,0.69087 0.0517,0.15449 0.29517,0.19096 0.34687,0.34544 0.0731,0.21847 -0.0561,0.46746 0,0.69087 0.0627,0.24979 0.29617,0.4384 0.34688,0.69088 0.068,0.33872 -0.057,0.69556 0,1.0363 0.50748,3.03229 0.12759,-0.52803 0.69374,1.72718 0.0561,0.22341 -0.0454,0.46505 0,0.69087 0.0717,0.35705 0.27517,0.67925 0.34688,1.03631 0.0453,0.22581 -0.0561,0.46746 0,0.69087 0.0627,0.24979 0.26511,0.44662 0.34687,0.69087 0.0366,0.10924 -0.0366,0.2362 0,0.34544 0.0818,0.24426 0.26512,0.44661 0.34687,0.69087 0.0366,0.10923 0,0.23029 0,0.34544 0,0.23028 -0.0731,0.47239 0,0.69087 0.0517,0.15448 0.27375,0.19979 0.34688,0.34543 0.0773,0.15394 -0.0247,1.25858 0,1.38174 0.14342,0.7141 0.55033,1.35852 0.69375,2.07262 0.0453,0.22582 0,0.46058 0,0.69087 0,0.34543 0,0.69088 0,1.03631 0,0.11514 -0.0517,0.24245 0,0.34543 0.0731,0.14565 0.29516,0.19096 0.34687,0.34544 0.0731,0.21847 0,0.46058 0,0.69087 0,0.92116 0,1.84232 0,2.76349 0,0.23029 -0.0453,0.46506 0,0.69087 0.0717,0.35706 0.25819,0.68306 0.34687,1.03631 0.028,0.11171 -0.028,0.23372 0,0.34543 0.0887,0.35325 0.2582,0.68306 0.34688,1.03631 0.059,0.23509 -0.0949,0.8474 0,1.03631 0.0731,0.14564 0.27374,0.19979 0.34687,0.34544 0.0517,0.10298 0,0.23029 0,0.34543 0,0.34543 0.0841,0.70118 0,1.03631 -0.0397,0.15798 -0.27374,0.19978 -0.34687,0.34544 -0.0517,0.10299 0,0.23029 0,0.34543 0,0.34544 -0.068,0.69758 0,1.03631 0.0717,0.35704 0.27516,0.67925 0.34687,1.03631 0.0453,0.22581 -0.0731,0.4724 0,0.69087 0.20003,0.59758 1.03477,2.06097 1.3875,2.76348 0.23125,0.46059 0.4625,0.92116 0.69375,1.38175 0.11562,0.23029 0.20345,0.47664 0.34687,0.69087 0.26682,0.39858 0.7738,0.63773 1.04062,1.03631 0.0641,0.0958 -0.0694,0.25332 0,0.34544 0.81586,1.0833 1.07399,0.97487 2.08124,1.72718 0.13081,0.0977 0.20063,0.2726 0.34688,0.34543 0.10341,0.0515 0.24346,-0.0515 0.34687,0 0.30745,0.15309 0.72486,0.82667 1.04062,1.03631 0.21513,0.14282 0.47863,0.20261 0.69375,0.34543 0.40816,0.27099 0.63246,0.76533 1.04062,1.03631 0.0962,0.0638 0.24346,-0.0515 0.34687,0 0.30745,0.15308 0.72487,0.82667 1.04062,1.0363 0.21513,0.14282 0.44848,0.26402 0.69376,0.34545 0.10969,0.0364 0.25066,-0.0638 0.34687,0 0.27211,0.18065 0.40124,0.54521 0.69375,0.69086 0.20683,0.10299 0.47436,-0.0728 0.69375,0 0.15512,0.0515 0.21605,0.24774 0.34687,0.34544 0.33351,0.24909 0.70711,0.44178 1.04062,0.69088 0.13081,0.0977 0.21082,0.2551 0.34687,0.34543 0.21513,0.14282 0.47863,0.20261 0.69375,0.34543 0.13605,0.0903 0.21919,0.24371 0.34688,0.34544 0.45143,0.35966 0.90647,0.71695 1.38749,1.03631 0.21512,0.14282 0.47863,0.20261 0.69375,0.34543 0.27211,0.18066 0.40123,0.54523 0.69374,0.69088 0.10343,0.0515 0.25067,-0.0638 0.34688,0 0.27211,0.18065 0.43212,0.49546 0.69374,0.69086 0.20684,0.1545 0.51094,0.16338 0.69376,0.34545 0.0818,0.0814 -0.0517,0.24244 0,0.34543 0.7218,1.43762 -0.0239,-0.36929 0.69375,0.34543 0.71769,0.71473 -1.09674,-0.028 0.34687,0.69088 0.10342,0.0515 0.23718,-0.0365 0.34687,0 0.24527,0.0815 0.4625,0.23028 0.69375,0.34543 0.23124,0.11515 0.51092,0.16337 0.69375,0.34544 0.0817,0.0815 -0.0517,0.24245 0,0.34543 0.0731,0.14565 0.27375,0.19979 0.34687,0.34543 0.23125,0.46059 -0.34687,0.34545 0.34687,0.34545"
       id="path6" />
    <path
       style="fill:none;stroke:#000000;stroke-width:1px;stroke-linecap:butt;stroke-linejoin:miter;stroke-opacity:1"
       d="m 203.95572,249.7417 c -0.57811,0 -1.15975,0.0638 -1.73432,0 -1.31022,-0.14558 -2.51254,-0.84014 -3.8155,-1.04059 -0.68566,-0.10549 -1.38745,0 -2.08118,0 -0.92497,0 -1.84994,0 -2.7749,0 -1.27184,0 -2.54367,0 -3.8155,0 -0.46249,0 -0.92962,-0.0654 -1.38746,0 -0.36195,0.0517 -0.67994,0.28675 -1.04059,0.34686 -0.34214,0.057 -0.69844,-0.057 -1.04059,0 -0.36065,0.0601 -0.67994,0.28676 -1.04059,0.34686 -0.34214,0.057 -0.69372,0 -1.04059,0 -0.69373,0 -1.38745,0 -2.08118,0 -1.04059,0 -2.08118,0 -3.12177,0 -1.15621,0 -2.31242,0 -3.46863,0 -0.46249,0 -0.92497,0 -1.38746,0 -0.46248,0 -0.93126,0.076 -1.38745,0 -0.58154,-0.0969 -1.14769,-0.2882 -1.73432,-0.34686 -0.57524,-0.0575 -1.16554,0.10342 -1.73432,0 -6.14561,-2.04854 0.42192,-0.10311 -3.12177,-0.69373 -3.04483,-0.50747 0.53022,-0.12759 -1.73432,-0.69372 -0.22433,-0.0561 -0.46938,0.0561 -0.69372,0 -0.25082,-0.0627 -0.44846,-0.26511 -0.69373,-0.34687 -0.10969,-0.0366 -0.23124,0 -0.34686,0 -0.23125,-0.11562 -0.44846,-0.2651 -0.69373,-0.34686 -0.10969,-0.0366 -0.23718,0.0366 -0.34686,0 -0.24527,-0.0818 -0.46249,-0.23124 -0.69373,-0.34686 -0.23124,-0.11562 -0.47861,-0.20346 -0.69373,-0.34687 -0.13605,-0.0907 -0.20061,-0.27374 -0.34686,-0.34686 -0.10342,-0.0517 -0.24345,0.0517 -0.34686,0 -0.14625,-0.0731 -0.20062,-0.27374 -0.34687,-0.34686 -0.32702,-0.16352 -0.73637,-0.14405 -1.04059,-0.34687 -0.0962,-0.0641 0.0818,-0.2651 0,-0.34686 -0.16351,-0.16351 -0.4869,0.10341 -0.69373,0 -0.14625,-0.0731 -0.20061,-0.27374 -0.34686,-0.34686 -0.10341,-0.0517 -0.24345,0.0517 -0.34686,0 -0.14625,-0.0731 -0.21081,-0.25617 -0.34687,-0.34687 -0.17467,-0.7642 -0.71356,-0.18335 -1.04059,-0.34686 -0.14625,-0.0731 -0.21081,-0.25616 -0.34686,-0.34687 -0.90924,-0.60616 -0.60616,-0.12964 -1.73432,-0.69372 -0.14625,-0.0731 -0.19174,-0.29516 -0.34686,-0.34687 -0.21938,-0.0731 -0.47435,0.0731 -0.69373,0 -0.15512,-0.0517 -0.20061,-0.27373 -0.34686,-0.34686 -0.10342,-0.0517 -0.24345,0.0517 -0.34686,0 -0.14625,-0.0731 -0.20062,-0.27374 -0.34687,-0.34686 -0.10341,-0.0517 -0.24345,0.0517 -0.34686,0 -0.2925,-0.14625 -0.40123,-0.54748 -0.69373,-0.69373 -0.85431,-0.42715 0.31313,1.00685 -1.04059,-0.34686 -0.0817,-0.0818 0.10342,-0.29516 0,-0.34687 -0.20683,-0.10341 -0.4869,0.10342 -0.69373,0 -0.10341,-0.0517 0.0818,-0.2651 0,-0.34686 -0.18281,-0.18281 -0.47861,-0.20345 -0.69372,-0.34686 -0.2721,-0.1814 -0.40123,-0.54748 -0.69373,-0.69373 -0.32703,-0.16351 -0.71356,-0.18335 -1.04059,-0.34686 -3.27174,-1.63587 0.076,-0.065 -1.38745,-1.04059 -0.21512,-0.14341 -0.47861,-0.20346 -0.69373,-0.34687 -0.13605,-0.0907 -0.19174,-0.29515 -0.34686,-0.34686 -0.21938,-0.0731 -0.47436,0.0731 -0.69373,0 -0.15512,-0.0517 -0.20061,-0.27374 -0.34686,-0.34686 -0.10342,-0.0517 -0.23125,0 -0.34687,0 -0.23124,-0.11563 -0.47861,-0.20346 -0.69372,-0.34687 -0.27211,-0.1814 -0.40123,-0.54747 -0.69373,-0.69372 -0.10342,-0.0517 -0.24345,0.0517 -0.34687,0 -1.1504,-1.15041 0.32703,0.16351 -0.69372,-0.34687 -0.14625,-0.0731 -0.21081,-0.25616 -0.34687,-0.34686 -0.21511,-0.14341 -0.47861,-0.20345 -0.69372,-0.34687 -0.13605,-0.0907 -0.21081,-0.25616 -0.34687,-0.34686 -0.43023,-0.28682 -0.97379,-0.38348 -1.38745,-0.69373 -0.26162,-0.19621 -0.43211,-0.49751 -0.69373,-0.69372 -0.20683,-0.15512 -0.47861,-0.20346 -0.69372,-0.34687 -0.13605,-0.0907 -0.21082,-0.25616 -0.34687,-0.34686 -0.21511,-0.14341 -0.47861,-0.20345 -0.69372,-0.34686 -0.13606,-0.0907 -0.23125,-0.23125 -0.34687,-0.34687 -0.34686,-0.34686 -0.65754,-0.73415 -1.04059,-1.04059 -0.20188,-0.1615 -0.47203,-0.21384 -0.69372,-0.34686 -0.35747,-0.21448 -0.69373,-0.46248 -1.0406,-0.69373 -0.34686,-0.23124 -0.71506,-0.4333 -1.04059,-0.69372 -0.51072,-0.40859 -0.92497,-0.92497 -1.38745,-1.38746 -0.11562,-0.11562 -0.20061,-0.27374 -0.34686,-0.34686 -0.10342,-0.0517 -0.26511,0.0817 -0.34687,0 -0.18281,-0.18281 -0.2651,-0.44846 -0.34686,-0.69373 -0.0366,-0.10969 0.0818,-0.26511 0,-0.34686 -0.18281,-0.18282 -0.53222,-0.14498 -0.69373,-0.34687 -0.32301,-0.40376 -0.43718,-0.9385 -0.69372,-1.38745 -0.20683,-0.36195 -0.4436,-0.70709 -0.69373,-1.04059 -0.0981,-0.13081 -0.29516,-0.19174 -0.34686,-0.34686 -0.0731,-0.21938 0.10341,-0.4869 0,-0.69373 -0.14625,-0.2925 -0.49752,-0.43211 -0.69373,-0.69373 -0.1024,-0.13653 -1.00264,-1.92937 -1.04059,-2.08118 -0.0561,-0.22434 0.0561,-0.46939 0,-0.69372 -0.0627,-0.25082 -0.23124,-0.46249 -0.34687,-0.69373 -0.23124,-0.46249 -0.53021,-0.89692 -0.69372,-1.38746 -0.0731,-0.21937 0.0561,-0.46938 0,-0.69372 -0.0627,-0.25082 -0.26511,-0.44846 -0.34687,-0.69373 -0.0366,-0.10969 0.0429,-0.23951 0,-0.34686 -0.19203,-0.48009 -0.49004,-0.91219 -0.69372,-1.38746 -0.14403,-0.33606 -0.18335,-0.71356 -0.34687,-1.04059 -0.18643,-0.37286 -0.5389,-0.65353 -0.69372,-1.04059 -0.0859,-0.2147 0.0561,-0.46939 0,-0.69372 -0.12541,-0.50164 -0.53022,-0.89692 -0.69373,-1.38746 -0.0366,-0.10969 0.0517,-0.24345 0,-0.34686 -0.0731,-0.14625 -0.25616,-0.21081 -0.34686,-0.34687 -0.65711,0.0395 -0.23125,-0.80934 -0.34687,-1.04059 -0.0731,-0.14625 -0.27374,-0.20061 -0.34686,-0.34686 -0.16351,-0.32703 -0.18335,-0.71356 -0.34686,-1.04059 -0.14625,-0.2925 -0.54748,-0.40123 -0.69373,-0.69373 -0.0517,-0.10341 0.0517,-0.24345 0,-0.34686 -0.0896,-0.17917 -1.61666,-1.61666 -1.73432,-1.73432 -0.46248,-0.46248 -0.92497,-0.92497 -1.38745,-1.38745 -0.23124,-0.23124 -0.43211,-0.49751 -0.69373,-0.69373 -0.20683,-0.15512 -0.47203,-0.21385 -0.69373,-0.34686 -0.35747,-0.21448 -0.68312,-0.47925 -1.04059,-0.69373 -0.44338,-0.26603 -0.97379,-0.38348 -1.38745,-0.69373 -0.4274,-0.32055 -0.94587,-1.09306 -1.38745,-1.38745 -0.57761,-0.38507 -1.54537,-0.63873 -2.08118,-1.04059 -0.26163,-0.19622 -0.42163,-0.51233 -0.69373,-0.69373 -0.0962,-0.0641 -0.25066,0.0641 -0.34687,0 -0.2721,-0.1814 -0.46248,-0.46248 -0.69372,-0.69372 -0.11562,-0.11562 -0.25616,-0.21082 -0.34687,-0.34687 -0.14341,-0.21511 -0.16405,-0.51091 -0.34686,-0.69372 -0.18281,-0.18282 -0.47861,-0.20346 -0.69373,-0.34687 -0.44158,-0.29438 -0.96005,-1.0669 -1.38745,-1.38745 -0.20683,-0.15512 -0.47861,-0.20345 -0.69373,-0.34686 -0.13605,-0.0907 -0.23124,-0.23125 -0.34686,-0.34687 -0.23124,-0.23124 -0.46248,-0.46248 -0.69373,-0.69373 -1.23077,-1.23076 -0.15668,-0.15668 -1.387451,-1.38745 -0.924969,-0.92497 -1.849939,-1.84994 -2.774908,-2.77491 -0.462484,-0.46248 -0.978871,-0.87672 -1.387454,-1.38745 -0.260421,-0.32553 -0.426848,-0.72034 -0.693727,-1.04059 -2.834948,-2.83495 0.02815,0.24752 -1.387453,-1.73432 -0.877747,-1.22884 -1.290764,-1.31916 -1.734318,-2.42804 -0.860144,-0.32735 -0.196112,-0.9352 -0.346863,-1.38746 -0.08176,-0.24527 -0.284159,-0.44291 -0.346864,-0.69372 -0.082,-0.328 0.102864,-1.47716 0,-1.73432 -0.192036,-0.48009 -0.551676,-0.89028 -0.693727,-1.38745 -0.09529,-0.33352 0.05702,-0.69845 0,-1.0406 -0.06011,-0.36065 -0.258186,-0.68588 -0.346863,-1.04059 -0.02804,-0.11216 0,-0.23124 0,-0.34686 0,-0.5781 0.08176,-1.16202 0,-1.73432 -0.03656,-0.25593 -0.284159,-0.44291 -0.346864,-0.69372 -0.05608,-0.22434 0.04535,-0.46698 0,-0.69373 -0.0717,-0.35853 -0.275158,-0.68206 -0.346863,-1.04059 -0.06803,-0.34013 0.08413,-0.70408 0,-1.04059 -1.197693,-3.59308 0.356245,1.43436 -0.346864,-2.08118 -0.0507,-0.25352 -0.24502,-0.4561 -0.346863,-0.69373 -0.24527,-0.57229 -0.522675,-1.13563 -0.693727,-1.73432 -0.06353,-0.22234 0.05609,-0.46939 0,-0.69372 -0.0627,-0.25082 -0.284159,-0.44291 -0.346863,-0.69373 -0.05608,-0.22434 0.05608,-0.46939 0,-0.69373 -0.0627,-0.25081 -0.250846,-0.45368 -0.346864,-0.69372 -0.13579,-0.33948 -0.258186,-0.68588 -0.346863,-1.04059 -0.108461,-0.43385 0.141555,-0.96279 0,-1.38746 -0.42862,-1.28586 -0.346864,0.42281 -0.346864,-0.69373"
       id="path7" />
    <path
       style="fill:none;stroke:#000000;stroke-width:1px;stroke-linecap:butt;stroke-linejoin:miter;stroke-opacity:1"
       d="m 108.56827,198.05904 c -0.43725,1.16599 -0.95021,2.30265 -1.38746,3.46864 -0.12838,0.34234 -0.20283,0.70452 -0.34686,1.04059 -0.20369,0.47526 -0.53022,0.89691 -0.69373,1.38745 -0.0731,0.21938 0.0453,0.46697 0,0.69373 -0.95064,2.85193 0.12188,-0.73126 -0.34686,2.08118 -0.16435,0.98606 -0.37022,0.92555 -0.69373,1.73431 -0.13579,0.33948 -0.21107,0.70112 -0.34686,1.0406 -0.096,0.24004 -0.26511,0.44845 -0.34687,0.69372 -0.0366,0.10969 0.0366,0.23718 0,0.34687 -0.0817,0.24526 -0.25084,0.45368 -0.34686,0.69372 -0.13579,0.33948 -0.18335,0.71357 -0.34686,1.04059 -0.14625,0.2925 -0.54748,0.40123 -0.69373,0.69373 -0.30701,0.61402 0.51594,0.11853 -0.34686,0.69373 -0.21512,0.14341 -0.51092,0.16405 -0.69373,0.34686 -0.18281,0.18281 -0.20345,0.47861 -0.34686,0.69373 -0.0907,0.13605 -0.23125,0.23124 -0.34687,0.34686 -0.11562,0.11562 -0.20061,0.27374 -0.34686,0.34686 -0.10342,0.0517 -0.24345,-0.0517 -0.34686,0 -0.966859,0.48343 -2.507654,1.96746 -3.121775,2.42805 -0.20683,0.15512 -0.510914,0.16405 -0.693727,0.34686 -0.182813,0.18281 -0.164051,0.51092 -0.346864,0.69373 -0.182813,0.18281 -0.462484,0.23124 -0.693727,0.34686 -0.231242,0.11562 -0.462484,0.23124 -0.693727,0.34687 -0.893537,0.44676 -0.757657,0.34297 -1.734317,1.04059 -0.470424,0.33601 -0.948523,0.66436 -1.387454,1.04059 -0.372445,0.31924 -0.641422,0.75547 -1.04059,1.04059 -0.01108,0.008 -2.741923,1.3686 -2.774908,1.38745 -0.361951,0.20683 -0.657419,0.52951 -1.04059,0.69373 -0.438174,0.18779 -0.951824,0.15325 -1.387454,0.34686 -0.616075,0.27381 -1.103062,0.80387 -1.734318,1.04059 -0.324778,0.12179 -0.698446,-0.057 -1.04059,0 -0.360651,0.0601 -0.693727,0.23124 -1.04059,0.34687 -0.346864,0.11562 -0.693727,0.23124 -1.040591,0.34686 -0.693727,0.23124 -1.40223,0.42215 -2.081181,0.69373 -0.240045,0.096 -0.44021,0.29616 -0.693727,0.34686 -0.340127,0.068 -0.698446,-0.057 -1.04059,0 -0.986058,0.16434 -0.925556,0.37022 -1.734317,0.69373 -0.339476,0.13579 -0.713565,0.18335 -1.040591,0.34686 -0.14625,0.0731 -0.200613,0.27374 -0.346863,0.34686 -0.103415,0.0517 -0.239512,-0.0429 -0.346864,0 -0.48009,0.19204 -0.907363,0.50169 -1.387454,0.69373 -0.107351,0.0429 -0.265106,-0.0818 -0.346863,0 -0.08176,0.0818 0.05171,0.24345 0,0.34686 -0.07312,0.14625 -0.231242,0.23125 -0.346863,0.34687 -0.231243,0.23124 -0.489436,0.43836 -0.693727,0.69372 -0.260422,0.32553 -0.479245,0.68312 -0.693727,1.04059 -0.395237,0.65873 -0.614697,1.44234 -1.040591,2.08118 -0.423112,0.63467 -0.44223,0.0346 -0.693727,1.0406 -0.08413,0.3365 0.109688,0.71152 0,1.04059 -0.462484,1.38745 -0.332836,-0.0701 -0.693727,1.73431 -0.04535,0.22675 0.03802,0.46563 0,0.69373 -0.07837,0.47023 -0.279445,0.91553 -0.346863,1.38745 -0.04905,0.34338 0.05702,0.69845 0,1.04059 -0.06011,0.36066 -0.286755,0.67994 -0.346864,1.04059 -0.05702,0.34215 0,0.69373 0,1.04059 0,0.34687 0,0.69373 0,1.0406 0,0.11562 0.03656,0.23717 0,0.34686 -0.115621,0.23124 -0.231242,0.46248 -0.346863,0.69373 0,0.23124 0.07313,0.47435 0,0.69372 -0.05171,0.15512 -0.295156,0.19174 -0.346863,0.34687 -0.07313,0.21937 0.05608,0.46939 0,0.69372 -0.0627,0.25082 -0.28416,0.44291 -0.346864,0.69373 -0.05608,0.22434 0,0.46248 0,0.69373 -0.115621,0.23124 -0.265107,0.44845 -0.346863,0.69372 -0.07953,0.23859 0.102328,0.83594 0,1.04059 -0.793729,1.58746 0.143765,-1.47188 -0.693727,1.04059 -0.03656,0.10969 0.02804,0.2347 0,0.34687 -0.08868,0.35471 -0.231243,0.69373 -0.346864,1.04059 -0.115621,0.34686 -0.14405,0.73637 -0.346863,1.04059 -0.06413,0.0962 -0.265107,-0.0818 -0.346864,0 -0.230216,0.23021 0.230216,0.46351 0,0.69373 -0.08176,0.0817 -0.265107,-0.0818 -0.346863,0 -0.163513,0.16351 0.163513,0.53021 0,0.69372 -0.08176,0.0818 -0.265107,-0.0817 -0.346864,0 -0.163513,0.16352 0.163513,0.53022 0,0.69373 -0.462484,0.46248 -0.346863,-0.57811 -0.346863,0.34686"
       id="path8" />
    <path
       style="fill:none;stroke:#000000;stroke-width:1.00397px;stroke-linecap:butt;stroke-linejoin:miter;stroke-opacity:1"
       d="m 18.258441,160.94487 c 3.496715,0 6.99343,0 10.490144,0 0.815901,0 1.631801,0 2.447702,0 0.233114,0 0.466228,0 0.699343,0 0.116557,0 0.239095,-0.0366 0.349671,0 0.247254,0.0818 0.482485,0.20343 0.699343,0.34682 0.137152,0.0907 0.189756,0.30717 0.349671,0.34682 0.339231,0.0841 0.706133,-0.068 1.049015,0 0.436144,0.0865 1.512978,0.92373 1.748357,1.04046 0.104252,0.0517 0.239096,-0.0366 0.349672,0 0.247255,0.0817 0.452088,0.26507 0.699343,0.34682 0.110575,0.0366 0.233114,0 0.349671,0 0.349671,0.1156 0.719341,0.18332 1.049014,0.34681 0.147435,0.0731 0.21252,0.25614 0.349672,0.34683 0.433714,0.28678 0.932457,0.46242 1.398686,0.69363 0.466228,0.23122 0.904176,0.53015 1.398686,0.69364 0.110576,0.0366 0.239096,-0.0366 0.349671,0 0.247256,0.0818 0.446496,0.28412 0.699344,0.34681 0.266453,0.0661 2.085915,0 2.4477,0 1.515243,0 3.030486,0 4.545729,0 2.331144,0 4.662287,0 6.993431,0 0.699343,0 1.398686,0 2.098029,0 0.233114,0 0.470755,0.0454 0.699343,0 0.361428,-0.0717 0.699342,-0.23121 1.049014,-0.34681 0.696733,-0.23035 1.745194,-0.60655 2.4477,-0.69364 0.462628,-0.0574 0.935309,0.0511 1.398686,0 0.799057,-0.0881 2.320439,-0.48867 3.147043,-0.69363 0.466229,-0.11561 0.9366,-0.21588 1.398687,-0.34683 0.636831,-0.18047 1.185634,-0.35875 1.748358,-0.69363 0.720726,-0.42891 1.3773,-0.95837 2.098028,-1.38728 0.893953,-0.53199 1.864915,-0.92485 2.797372,-1.38727 0.466229,-0.23121 0.914709,-0.50163 1.398686,-0.69364 0.684448,-0.27155 1.398686,-0.46242 2.098029,-0.69363 0.349671,-0.11562 0.699343,-0.23122 1.049014,-0.34683 0.349672,-0.1156 0.687587,-0.27512 1.049015,-0.34681 0.228587,-0.0453 0.473189,0.0561 0.699343,0 0.252848,-0.0627 0.446495,-0.28413 0.699343,-0.34683 0.226154,-0.0561 0.467654,0.0255 0.699343,0 0.819143,-0.0903 1.627607,-0.26547 2.447701,-0.34681 0.347936,-0.0345 0.709783,0.0841 1.049014,0 0.159915,-0.0397 0.193294,-0.29511 0.349672,-0.34682 0.221151,-0.0731 0.466228,0 0.699343,0 0.349671,0 0.699342,0 1.049014,0 0.116557,0 0.24542,0.0517 0.349671,0 0.147435,-0.0731 0.193294,-0.29512 0.349672,-0.34682 0.160066,-0.0529 1.553186,0 1.748357,0 1.398686,0 2.797372,0 4.196059,0 0.8159,0 1.6318,0 2.4477,0 0.349672,0 0.717287,-0.10967 1.049014,0 0.156379,0.0517 0.193294,0.29512 0.349672,0.34682 0.221147,0.0731 0.466225,0 0.699342,0 0.34967,0 0.70614,-0.068 1.04902,0 0.25556,0.0507 0.44873,0.27581 0.69933,0.34682 0.4896,1.05195 1.42331,0.21297 2.09803,0.34681 0.47125,0.0935 0.9366,0.21587 1.3987,0.34683 0.3544,0.10042 0.69933,0.23121 1.04901,0.34681 0.34967,0.11561 0.71934,0.18333 1.04901,0.34683 1.64191,0.81424 0.43993,0.52135 1.74836,1.04045 0.47311,0.71467 1.18453,0.16041 1.74835,0.34682 0.15639,0.0517 0.21253,0.25613 0.34968,0.34681 0.21685,0.1434 0.48249,0.20344 0.69934,0.34683 0.13715,0.0907 0.21252,0.25613 0.34968,0.34681 0.21685,0.1434 0.49083,0.19172 0.69933,0.34682 0.26375,0.19619 0.46624,0.46243 0.69935,0.69364 0.35883,0.35589 1.62169,1.70295 2.09803,2.08091 0.32816,0.26039 0.72617,0.4268 1.04901,0.69364 0.63315,0.52332 1.16557,1.15606 1.74836,1.73409 0.11656,0.11561 0.23311,0.23122 0.34967,0.34682 0.11655,0.11561 0.19329,0.29511 0.34968,0.34682 0.22114,0.0731 0.47819,-0.0731 0.69933,0 0.15639,0.0517 0.20225,0.2737 0.34968,0.34682 0.2085,0.1034 0.47075,-0.0453 0.69934,0 0.47124,0.0935 0.92465,0.26846 1.39869,0.34682 0.22994,0.038 0.47075,-0.0454 0.69933,0 2.49083,0.49409 -0.594,0.26265 2.44771,0.69364 0.57692,0.0817 1.17143,-0.0818 1.74836,0 0.58836,0.0834 1.16,0.26344 1.74835,0.34681 0.23077,0.0327 0.46624,0 0.69935,0 0.58279,0 1.16557,0 1.74836,0 2.09803,0 4.19605,0 6.29408,0 3.03049,0 6.06097,0 9.09146,0 0.58279,0 1.16557,0 1.74836,0 0.69934,0 1.40996,0.12409 2.09803,0 0.61755,-0.11136 1.1308,-0.58227 1.74836,-0.69364 0.68805,-0.12408 1.40215,0.069 2.09803,0 0.47819,-0.0474 0.93246,-0.23121 1.39868,-0.34681 0.46623,-0.11561 0.9366,-0.21587 1.39868,-0.34682 0.35441,-0.10043 0.68759,-0.27512 1.04903,-0.34682 0.22858,-0.0453 0.47318,0.0561 0.69933,0 0.25285,-0.0627 0.45209,-0.26508 0.69935,-0.34682 0.11058,-0.0366 0.23909,0.0366 0.34967,0 0.24725,-0.0818 0.44649,-0.28412 0.69934,-0.34682 0.22616,-0.0561 0.49084,0.1034 0.69935,0 0.10424,-0.0517 -0.0521,-0.24341 0,-0.34682 0.72762,-1.44337 -0.0242,0.37076 0.69933,-0.34681 0.0825,-0.0818 -0.0824,-0.26508 0,-0.34683 0.72349,-0.71758 -0.0283,1.09656 0.69935,-0.34681 0.0632,-0.12543 0,-1.49287 0,-1.7341 0,-0.1156 -0.0825,-0.26507 0,-0.34681 0.0825,-0.0818 0.23311,0 0.34967,0"
       id="path9" />
  </g>
  <g
     id="layer2"
     transform="translate(-14.210337,-6.1526939)">
    <ellipse
       style="fill:none;stroke:#000000;stroke-width:4.52978"
       id="path2-6"
       cx="128.27539"
       cy="166.30859"
       rx="111.80016"
       ry="113.53448" />
    <path
       style="fill:none;stroke:#000000;stroke-width:3;stroke-linecap:butt;stroke-linejoin:miter;stroke-dasharray:none;stroke-opacity:1"
       d="m 62.788995,256.184 c 1.097967,-1.57284 1.69208,-3.45047 2.3563,-5.24996 0.586746,-1.5896 1.056613,-3.22517 1.430812,-4.87777 0.460708,-2.03465 0.643632,-4.12253 0.997233,-6.1785 0.286375,-1.66509 0.257213,-3.42804 0.910516,-4.98616 0.762055,-1.81749 1.845365,-3.6278 3.403598,-4.83441 2.008858,-1.55555 4.733907,-1.85 7.13238,-2.6882 3.089294,-1.07962 6.442417,-1.49935 9.343635,-3.01337 1.778465,-0.9281 3.163957,-2.46866 4.791051,-3.64207 1.682603,-1.21344 3.470461,-2.27782 5.137916,-3.51199 1.636444,-1.21122 3.509034,-2.21658 4.769374,-3.8155 1.13668,-1.44204 1.74088,-3.25094 2.34133,-4.98616 0.74462,-2.15184 0.85386,-4.48399 1.5392,-6.65544 0.44105,-1.39741 0.24761,-3.64285 1.6476,-4.07565 1.85737,-0.5742 3.33406,2.02065 4.85609,3.23017 1.63289,1.29761 3.32014,2.60982 4.55259,4.29243 1.35598,1.85126 2.11071,4.08129 2.99169,6.20019 0.57646,1.3865 0.97602,2.84036 1.49585,4.24907 0.65972,1.78779 1.1775,3.6438 2.0595,5.33303 0.63359,1.21346 1.51413,2.28132 2.29797,3.4036 0.73499,1.05234 1.44902,2.12245 2.25462,3.12177 0.93413,1.15876 1.87902,2.32422 2.98256,3.32297 1.60301,1.45079 3.39873,2.68787 5.23386,3.83099 2.09689,1.30618 4.36211,2.3211 6.56578,3.43773 1.54432,0.78253 3.1092,1.52378 4.66383,2.28561 2.16787,1.06233 4.35492,2.08637 6.50369,3.18681 2.20994,1.13176 4.2401,2.6505 6.56873,3.512 2.2906,0.84743 4.77157,1.0452 7.15406,1.58256 1.25856,0.28386 2.48982,0.72495 3.77214,0.86716 4.25197,0.47154 8.58849,0.46196 12.83395,-0.065 1.1375,-0.14119 2.20054,-0.68684 3.33856,-0.8238 3.02049,-0.36351 6.19099,-0.776 9.12684,0.0217 1.6841,0.45759 4.18551,1.24096 4.52188,2.63873"
       id="path10" />
    <path
       style="fill:none;stroke:#000000;stroke-width:3;stroke-linecap:butt;stroke-linejoin:miter;stroke-dasharray:none;stroke-opacity:1"
       d="m 17.046231,161.11141 c 0,0 10.151242,-1.12838 15.084075,-0.15329 1.491519,0.29483 2.793033,1.20259 4.20024,1.7782 1.983067,0.81116 3.906984,1.81338 5.978445,2.36072 1.057764,0.27949 2.156357,0.42358 3.249821,0.45988 5.786797,0.19212 11.559757,-0.72322 17.322159,-1.28771 1.936477,-0.1897 3.937534,-0.12409 5.794492,-0.70515 2.403907,-0.75221 4.40896,-2.44379 6.683594,-3.52575 1.554734,-0.73953 3.096194,-1.55222 4.752097,-2.02348 2.207539,-0.62825 4.91229,-2.33889 6.806229,-1.04239 2.219927,1.51966 1.161428,5.25365 1.747545,7.87928 0.518015,2.32055 1.178318,4.61327 1.563593,6.95952 0.238103,1.45 0.17774,2.94212 0.459881,4.3842 0.373848,1.91081 0.696947,3.89887 1.62491,5.61054 1.215621,2.24228 3.2373,3.9485 4.997367,5.79449 1.720965,1.80498 3.573361,3.48176 5.426591,5.15066 0.95878,0.86342 1.93131,1.71352 2.94323,2.51401 1.10652,0.87532 3.41605,2.49917 3.41605,2.49917"
       id="path11" />
    <path
       style="fill:none;stroke:#000000;stroke-width:3;stroke-linecap:butt;stroke-linejoin:miter;stroke-dasharray:none;stroke-opacity:1"
       d="m 86.886724,156.97249 c 0,0 2.154923,-0.45956 3.249821,-0.55186 1.995954,-0.16826 4.010279,-0.12981 6.009103,0 1.892343,0.12289 3.779606,0.37453 5.641202,0.73581 2.23864,0.43446 4.44597,1.03573 6.62227,1.71689 0.78993,0.24724 1.61389,0.44344 2.33006,0.85844 3.41453,1.97863 5.48672,5.96067 9.07498,7.60335 3.12553,1.43084 6.75092,1.39727 10.17868,1.65557 3.77077,0.28415 7.56286,-0.0553 11.34372,-0.12263 2.4735,-0.044 4.95037,-0.0289 7.4194,-0.18395 2.02977,-0.12749 4.0674,-0.26085 6.07042,-0.61318 1.88944,-0.33235 3.67611,-1.17344 5.57988,-1.4103 0.93301,-0.11608 1.97451,-0.41002 2.8206,0 0.8905,0.43154 1.20749,1.56864 1.83952,2.33006 0.8142,0.98089 1.59077,2.00288 2.51401,2.88192 0.71666,0.68236 1.46172,1.36495 2.33006,1.83952 2.20072,1.20276 4.67393,1.86824 7.11282,2.4527 1.58538,0.37992 3.26047,0.2872 4.84407,0.67449 1.6013,0.39162 3.26639,0.7752 4.66012,1.65557 0.65983,0.41679 1.27008,0.97697 1.65557,1.65557 0.86433,1.52154 0.86505,3.39124 1.28767,5.08934 0.72673,2.91999 1.42352,5.84736 2.14611,8.76838 0.34403,1.39072 0.81512,2.75509 1.04239,4.16959 0.39664,2.46869 0.36865,4.98709 0.55186,7.48072 0.12313,1.67597 0.0758,3.37311 0.3679,5.02802 0.24739,1.40176 0.54301,2.82794 1.16503,4.10826 1.0487,2.15857 2.51487,4.14752 4.2309,5.82516 1.15543,1.12958 2.61789,1.89889 3.98563,2.75928 1.29397,0.81399 2.71379,1.42059 3.98563,2.26874 1.33333,0.88916 2.57064,1.91712 3.80168,2.94323 1.22301,1.01942 2.20246,2.35078 3.55641,3.18851 0.99088,0.61309 3.24982,1.28766 3.24982,1.28766"
       id="path12" />
    <path
       style="fill:none;stroke:#000000;stroke-width:3;stroke-linecap:butt;stroke-linejoin:miter;stroke-dasharray:none;stroke-opacity:1"
       d="m 162.61812,166.40622 c 0,0 0.89622,-5.82586 1.1606,-8.75924 0.19103,-2.11953 0.0297,-4.26698 0.30658,-6.37701 0.30203,-2.30144 0.90448,-4.55541 1.47162,-6.80623 0.42359,-1.68111 0.92826,-3.34125 1.44096,-4.99736 0.47118,-1.52197 1.09397,-2.99746 1.50227,-4.53749 0.42476,-1.60214 0.50488,-3.28711 0.98104,-4.87473 0.4465,-1.48873 1.2255,-2.85893 1.74755,-4.32288 0.52115,-1.46142 0.88192,-2.97595 1.37964,-4.44551 0.40864,-1.20656 0.94263,-2.36984 1.31832,-3.58706 0.46929,-1.5205 0.87944,-3.06404 1.16503,-4.62947 0.27324,-1.49772 0.5212,-4.53748 0.5212,-4.53748"
       id="path13" />
    <path
       style="fill:none;stroke:#000000;stroke-width:3;stroke-linecap:butt;stroke-linejoin:miter;stroke-dasharray:none;stroke-opacity:1"
       d="m 233.78598,130.24723 c 0,0 -6.29799,-0.89377 -9.19188,-2.12454 -3.04704,-1.29591 -5.65761,-3.45752 -8.32473,-5.41974 -2.28203,-1.6789 -4.40099,-3.57018 -6.54704,-5.41974 -1.00009,-0.86192 -1.88193,-1.86645 -2.94834,-2.64483 -2.84104,-2.0737 -5.74731,-4.2859 -9.10517,-5.33303 -2.58732,-0.80684 -5.4001,-0.49358 -8.10793,-0.60701 -3.20581,-0.1343 -6.42278,0.10822 -9.62547,-0.0867 -1.66955,-0.10161 -3.32509,-0.36723 -4.98616,-0.56365 -1.17139,-0.13851 -2.36778,-0.14701 -3.51199,-0.43358 -1.24712,-0.31235 -2.49518,-0.72784 -3.59871,-1.38745 -1.50434,-0.89919 -2.78053,-2.1559 -3.98893,-3.42528 -1.186,-1.24586 -2.10031,-2.72475 -3.16513,-4.075645 -1.08846,-1.380893 -2.21236,-2.733695 -3.2952,-4.119004 -0.61594,-0.787995 -1.25131,-1.562654 -1.82103,-2.384686 -0.65101,-0.939316 -1.25754,-1.9107 -1.82104,-2.904982 -1.25565,-2.215585 -2.34272,-4.522946 -3.46863,-6.807195 -1.20325,-2.441155 -2.27812,-4.945025 -3.51199,-7.370849 -0.53653,-1.054832 -1.15,-2.069207 -1.69096,-3.121771 -1.11686,-2.173103 -2.14,-4.393116 -3.20849,-6.590406 -0.49185,-1.011461 -0.97995,-2.024748 -1.47417,-3.035055 -0.96283,-1.96826 -2.05734,-3.876136 -2.90498,-5.896679 C 137.25107,55.930602 136.881,54.76109 136.881,54.76109"
       id="path14" />
    <path
       style="fill:none;stroke:#000000;stroke-width:3;stroke-linecap:butt;stroke-linejoin:miter;stroke-dasharray:none;stroke-opacity:1"
       d="m 28.022042,119.13967 c 3.213471,-2.93717 7.019644,-2.54015 10.607906,-3.55641 1.736375,-0.49177 3.553375,-0.6798 5.273294,-1.22635 1.703737,-0.54141 3.250003,-1.5247 4.966708,-2.02347 1.436031,-0.41722 2.962451,-0.44105 4.414851,-0.79713 3.534915,-0.86664 6.852533,-2.54866 10.423955,-3.24982 2.113629,-0.41496 4.287608,-0.67035 6.438324,-0.55186 2.205311,0.1215 4.438859,0.4931 6.499642,1.28767 1.445604,0.55737 2.611403,1.67588 3.98563,2.39138 1.290351,0.67183 2.580368,1.4019 3.985629,1.7782 2.481252,0.66442 5.097495,0.70958 7.664673,0.79713 2.882051,0.0983 5.766078,-0.15364 8.645746,-0.30659 2.31215,-0.1228 4.63516,-0.1743 6.92887,-0.49054 2.00533,-0.27648 3.96814,-0.80348 5.94778,-1.22635 1.94472,-0.41541 3.88689,-0.84309 5.82515,-1.28766 2.49818,-0.57299 4.9752,-1.2382 7.48072,-1.77821 4.4162,-0.95181 8.87974,-1.67087 13.30588,-2.57533 1.61821,-0.33067 3.25987,-0.57522 4.84407,-1.04239 3.26972,-0.96423 6.34991,-2.48605 9.56551,-3.61773 0.93284,-0.3283 1.90719,-0.54073 2.8206,-0.91976 1.08069,-0.44844 3.12718,-1.59425 3.12718,-1.59425"
       id="path15" />
    <g
       transform="matrix(3.6489887,0,0,3.6489887,114.72502,6.1527131)"
       id="g3">
      <g
         fill="#000000"
         fill-opacity="1"
         id="g2"
         transform="matrix(1.33333,0,0,1.33333,-3.11567,-2.2125)">
        <g
           id="use1"
           transform="translate(1.993,8.8000002)">
          <path
             d="M 1.78125,-1.140625 C 1.390625,-0.484375 1,-0.34375 0.5625,-0.3125 0.4375,-0.296875 0.34375,-0.296875 0.34375,-0.109375 0.34375,-0.046875 0.40625,0 0.484375,0 0.75,0 1.0625,-0.03125 1.328125,-0.03125 c 0.34375,0 0.6875,0.03125 1,0.03125 0.0625,0 0.1875,0 0.1875,-0.1875 0,-0.109375 -0.078125,-0.125 -0.15625,-0.125 -0.21875,-0.015625 -0.46875,-0.09375 -0.46875,-0.34375 0,-0.125 0.0625,-0.234375 0.140625,-0.375 l 0.765625,-1.265625 h 2.5 c 0.015625,0.203125 0.15625,1.5625 0.15625,1.65625 0,0.296875 -0.515625,0.328125 -0.71875,0.328125 C 4.59375,-0.3125 4.5,-0.3125 4.5,-0.109375 4.5,0 4.609375,0 4.640625,0 5.046875,0 5.46875,-0.03125 5.875,-0.03125 6.125,-0.03125 6.765625,0 7.015625,0 7.0625,0 7.1875,0 7.1875,-0.203125 7.1875,-0.3125 7.09375,-0.3125 6.953125,-0.3125 6.34375,-0.3125 6.34375,-0.375 6.3125,-0.671875 l -0.609375,-6.21875 c -0.015625,-0.203125 -0.015625,-0.25 -0.1875,-0.25 -0.15625,0 -0.203125,0.078125 -0.265625,0.171875 z M 2.984375,-2.609375 4.9375,-5.90625 5.265625,-2.609375 Z m 0,0"
             id="path3" />
        </g>
      </g>
    </g>
  </g>
</svg>
